<svg id="Layer_1" data-name="Layer 1" xmlns="http://www.w3.org/2000/svg" viewBox="0 0 282.25 55.03"><defs><style>.cls-1{fill:#f8f3f1;}.cls-2{fill:#ba5930;}.cls-3{fill:#fab395;}</style></defs><path class="cls-1" d="M178.3,27.05c0-4.48,3.53-6.84,7.09-6.84a6.49,6.49,0,0,1,5.72,3.25l-3.18,2.09a3.21,3.21,0,0,0-2.54-1.4,2.76,2.76,0,0,0-2.77,2.9A2.78,2.78,0,0,0,185.39,30a3.21,3.21,0,0,0,2.54-1.4l3.18,2.08a6.59,6.59,0,0,1-5.72,3.26C181.83,33.94,178.3,31.57,178.3,27.05Z"/><path class="cls-1" d="M202.15,20.34v4.19a4,4,0,0,0-1-.1,3.8,3.8,0,0,0-4.07,4.12v5.13h-4.4V20.46h4.4v3.61c.43-2.18,1.7-3.86,4-3.86A3.31,3.31,0,0,1,202.15,20.34Z"/><path class="cls-1" d="M216,28.78h-9a3.3,3.3,0,0,0,3.2,1.6,5,5,0,0,0,3-.87l1.93,2.06a6.72,6.72,0,0,1-5.41,2.37c-3.72,0-7-2.49-7-6.84a6.62,6.62,0,0,1,6.79-6.89C212.87,20.21,216.91,22.52,216,28.78Zm-9.13-3.11h5.27a2.49,2.49,0,0,0-2.57-1.8A2.77,2.77,0,0,0,206.87,25.67Z"/><path class="cls-1" d="M217.09,27.07c0-4.62,3.31-6.86,6.26-6.86a4.56,4.56,0,0,1,3.66,1.5h.07V20.46h4.4V33.68h-4.4V32.44H227a4.56,4.56,0,0,1-3.66,1.5C220.4,33.94,217.09,31.7,217.09,27.07Zm10.09,0a2.8,2.8,0,0,0-2.89-3,2.83,2.83,0,0,0-2.88,3,2.89,2.89,0,1,0,5.77,0Z"/><path class="cls-1" d="M242.34,29.77V33.1a4,4,0,0,1-2.7.73c-2.64,0-4.55-1.27-4.55-4.57V23.92h-2V20.46h2V17.08h4.4v3.38h2.79v3.46h-2.79V28.6c0,.61.35,1.37,1.6,1.37A4.32,4.32,0,0,0,242.34,29.77Z"/><path class="cls-1" d="M244,20.46h4.4V33.68H244Z"/><path class="cls-1" d="M249.76,20.46h4.47l3.1,8.09,3.08-8.09h4.47l-5.51,13.22h-4.09Z"/><path class="cls-1" d="M278.1,28.78h-9a3.31,3.31,0,0,0,3.2,1.6,5,5,0,0,0,3-.87l1.93,2.06a6.71,6.71,0,0,1-5.41,2.37c-3.71,0-7-2.49-7-6.84a6.62,6.62,0,0,1,6.79-6.89C275,20.21,279,22.52,278.1,28.78ZM269,25.67h5.26a2.49,2.49,0,0,0-2.57-1.8A2.75,2.75,0,0,0,269,25.67Z"/><path class="cls-1" d="M244.72,15.76l-.7,0v3h4.4V15h-.06A9.41,9.41,0,0,1,244.72,15.76Z"/><path class="cls-1" d="M64.58,27.07c0-4.62,3.31-6.86,6.26-6.86a4.56,4.56,0,0,1,3.66,1.5h.07V20.46H79V33.68h-4.4V32.44H74.5a4.56,4.56,0,0,1-3.66,1.5C67.89,33.94,64.58,31.7,64.58,27.07Zm10.09,0a2.8,2.8,0,0,0-2.89-3,2.83,2.83,0,0,0-2.88,3,2.89,2.89,0,1,0,5.77,0Z"/><path class="cls-1" d="M102,26.11v7.57h-4.4V26.23c0-1.47-.86-2.13-1.83-2.13a1.89,1.89,0,0,0-2,2.13v7.45H89.39V26.23a1.87,1.87,0,0,0-1.85-2.13,1.9,1.9,0,0,0-1.93,2.13v7.45h-4.4V20.46h4.4V22a4.42,4.42,0,0,1,7.22.18,5.06,5.06,0,0,1,4.27-2C99.92,20.21,102,22,102,26.11Z"/><path class="cls-1" d="M118.58,27.07c0,4.63-3.31,6.87-6.28,6.87a4.54,4.54,0,0,1-3.64-1.5h-.07v6.07h-4.4v-18h4.4v1.25h.07a4.54,4.54,0,0,1,3.64-1.5C115.27,20.21,118.58,22.45,118.58,27.07Zm-4.32,0a2.83,2.83,0,0,0-2.88-3,2.8,2.8,0,0,0-2.89,3,2.89,2.89,0,1,0,5.77,0Z"/><path class="cls-1" d="M120.18,15.63h4.4v18h-4.4Z"/><path class="cls-1" d="M126.81,20.46h4.4V33.68h-4.4Z"/><path class="cls-1" d="M147.66,33.68h-4.4V23.92h-4.5v9.76h-4.39V23.92h-1.81V20.46h1.81v-.15c0-5.54,4.84-5.26,7.17-5.26v3.69c-1.36,0-2.78-.2-2.78,1.72h8.9Z"/><path class="cls-1" d="M173.69,20.34v4.19a4.13,4.13,0,0,0-5,4v5.13h-4.4V20.46h4.4v3.61c.43-2.18,1.7-3.86,4-3.86A3.21,3.21,0,0,1,173.69,20.34Z"/><rect class="cls-1" x="143.26" y="15.04" width="4.4" height="3.7"/><rect class="cls-1" x="126.83" y="15.04" width="4.4" height="3.7"/><path class="cls-1" d="M162.53,28.78h-9a3.31,3.31,0,0,0,3.2,1.6,5,5,0,0,0,3-.87l1.93,2.06a6.72,6.72,0,0,1-5.41,2.37c-3.71,0-7-2.49-7-6.84a6.62,6.62,0,0,1,6.79-6.89C159.4,20.21,163.45,22.52,162.53,28.78Zm-9.12-3.11h5.26a2.49,2.49,0,0,0-2.57-1.8A2.75,2.75,0,0,0,153.41,25.67Z"/><path class="cls-1" d="M162.53,28.78h-9a3.31,3.31,0,0,0,3.2,1.6,5,5,0,0,0,3-.87l1.93,2.06a6.72,6.72,0,0,1-5.41,2.37c-3.71,0-7-2.49-7-6.84a6.62,6.62,0,0,1,6.79-6.89C159.4,20.21,163.45,22.52,162.53,28.78Zm-9.12-3.11h5.26a2.49,2.49,0,0,0-2.57-1.8A2.75,2.75,0,0,0,153.41,25.67Z"/><rect class="cls-2" x="38.54" y="20.34" width="5.58" height="14.13"/><rect class="cls-2" x="13.23" y="20.34" width="5.92" height="14.13"/><polygon class="cls-3" points="26.81 27.41 21.78 22.37 21.78 32.44 26.81 27.41"/><rect class="cls-2" x="21.78" y="37.1" width="14.13" height="5.92"/><path class="cls-3" d="M45.47,8.75a25,25,0,0,0-15.31-6.4V9.5h7.06a1.32,1.32,0,0,1,1.32,1.32v4.86Z"/><polygon class="cls-3" points="30.53 27.41 35.91 32.78 35.91 22.03 30.53 27.41"/><rect class="cls-2" x="21.78" y="12.13" width="14.13" height="5.58"/><polygon class="cls-3" points="33.88 34.47 28.67 29.27 23.47 34.47 33.88 34.47"/><polygon class="cls-3" points="28.67 25.55 33.88 20.34 23.47 20.34 28.67 25.55"/><path class="cls-3" d="M3.61,26.09h7V19a1.31,1.31,0,0,1,1.31-1.32h5.21L10,10.61A25,25,0,0,0,3.61,26.09Z"/><path class="cls-2" d="M40.23,17.71h5.2A1.32,1.32,0,0,1,46.75,19v7.06h7a25.05,25.05,0,0,0-6.41-15.48Z"/><path class="cls-3" d="M11.88,46.06a24.93,24.93,0,0,0,15.65,6.42V45.66H20.46a1.32,1.32,0,0,1-1.31-1.32V38.79Z"/><path class="cls-2" d="M19.15,16v-5.2A1.32,1.32,0,0,1,20.46,9.5h7.07V2.33A25,25,0,0,0,11.88,8.75Z"/><path class="cls-3" d="M46.75,28.72v7.07a1.32,1.32,0,0,1-1.32,1.31h-5.2l7.1,7.1a25,25,0,0,0,6.41-15.48Z"/><path class="cls-2" d="M17.12,37.1H11.91a1.31,1.31,0,0,1-1.31-1.31V28.72h-7A25,25,0,0,0,10,44.2Z"/><path class="cls-2" d="M38.54,39.13v5.21a1.32,1.32,0,0,1-1.32,1.32H30.16v6.8a25,25,0,0,0,15.31-6.4Z"/></svg>