<?xml version="1.0" encoding="utf-8"?>
<!-- Generator: Adobe Illustrator 25.0.0, SVG Export Plug-In . SVG Version: 6.00 Build 0)  -->
<svg version="1.1" id="Layer_1" xmlns="http://www.w3.org/2000/svg" xmlns:xlink="http://www.w3.org/1999/xlink" x="0px" y="0px"
	 viewBox="0 0 282.2 55" style="enable-background:new 0 0 282.2 55;" xml:space="preserve">
<style type="text/css">
	.st0{fill:#2D2C2C;}
	.st1{fill:#BA5930;}
	.st2{fill:#FAB395;}
</style>
<g>
	<g>
		<g>
			<g>
				<path class="st0" d="M177.9,26.6c0-4.5,3.5-6.8,7.1-6.8c2.3,0,4.4,1.1,5.7,3.3l-3.2,2.1c-0.6-0.7-1.4-1.4-2.5-1.4
					c-1.5,0-2.8,1.2-2.8,2.9c0,1.8,1.2,2.9,2.8,2.9c1.1,0,2-0.7,2.5-1.4l3.2,2.1c-1.3,2.1-3.4,3.3-5.7,3.3
					C181.4,33.5,177.9,31.2,177.9,26.6z"/>
				<path class="st0" d="M201.8,19.9v4.2c-0.3-0.1-0.6-0.1-1-0.1c-2.6,0-4.1,1.7-4.1,4.1v5.1h-4.4V20.1h4.4v3.6
					c0.4-2.2,1.7-3.9,4-3.9C201.1,19.8,201.4,19.8,201.8,19.9z"/>
				<path class="st0" d="M215.6,28.4h-9c0.5,1.1,1.7,1.6,3.2,1.6c1.1,0,2-0.2,3-0.9l1.9,2.1c-1.1,1.3-2.9,2.4-5.4,2.4
					c-3.7,0-7-2.5-7-6.8c0-4.5,3.4-6.9,6.8-6.9C212.5,19.8,216.5,22.1,215.6,28.4z M206.5,25.3h5.3c-0.3-1.2-1.4-1.8-2.6-1.8
					S206.9,24,206.5,25.3z"/>
				<path class="st0" d="M216.7,26.7c0-4.6,3.3-6.9,6.3-6.9c2.3,0,3.6,1.3,3.7,1.5h0.1v-1.2h4.4v13.2h-4.4V32h-0.1
					c-0.1,0.2-1.3,1.5-3.7,1.5C220,33.5,216.7,31.3,216.7,26.7z M226.8,26.7c0-1.9-1.3-3-2.9-3c-1.5,0-2.9,1.1-2.9,3
					c0,1.9,1.3,3,2.9,3C225.5,29.6,226.8,28.5,226.8,26.7z"/>
				<path class="st0" d="M241.9,29.4v3.3c-0.5,0.6-1.7,0.7-2.7,0.7c-2.6,0-4.5-1.3-4.5-4.6v-5.3h-2v-3.5h2v-3.4h4.4v3.4h2.8v3.5
					h-2.8v4.7c0,0.6,0.4,1.4,1.6,1.4C241,29.6,241.5,29.5,241.9,29.4z"/>
				<path class="st0" d="M243.6,20.1h4.4v13.2h-4.4V20.1z"/>
				<path class="st0" d="M249.4,20.1h4.5l3.1,8.1l3.1-8.1h4.5L259,33.3h-4.1L249.4,20.1z"/>
				<path class="st0" d="M277.7,28.4h-9c0.5,1.1,1.7,1.6,3.2,1.6c1.1,0,2-0.2,3-0.9l1.9,2.1c-1.1,1.3-2.9,2.4-5.4,2.4
					c-3.7,0-7-2.5-7-6.8c0-4.5,3.4-6.9,6.8-6.9C274.6,19.8,278.6,22.1,277.7,28.4z M268.6,25.3h5.3c-0.3-1.2-1.4-1.8-2.6-1.8
					C270.2,23.5,269,24,268.6,25.3z"/>
			</g>
			<path class="st0" d="M244.3,15.3c-0.2,0-0.5,0-0.7,0v3h4.4v-3.7H248C246.9,15.1,245.6,15.3,244.3,15.3z"/>
		</g>
	</g>
	<g>
		<g>
			<g>
				<g>
					<path class="st0" d="M64.2,26.7c0-4.6,3.3-6.9,6.3-6.9c2.3,0,3.6,1.3,3.7,1.5h0.1v-1.2h4.4v13.2h-4.4V32h-0.1
						c-0.1,0.2-1.3,1.5-3.7,1.5C67.5,33.5,64.2,31.3,64.2,26.7z M74.3,26.7c0-1.9-1.3-3-2.9-3c-1.5,0-2.9,1.1-2.9,3
						c0,1.9,1.3,3,2.9,3C73,29.6,74.3,28.5,74.3,26.7z"/>
					<path class="st0" d="M101.6,25.7v7.6h-4.4v-7.4c0-1.5-0.9-2.1-1.8-2.1c-1.1,0-2,0.7-2,2.1v7.4H89v-7.4c0-1.5-0.9-2.1-1.9-2.1
						c-1,0-1.9,0.7-1.9,2.1v7.4h-4.4V20.1h4.4v1.5c0.7-1.1,1.9-1.8,3.6-1.8c1.5,0,2.8,0.6,3.6,2c0.8-1.1,2.3-2,4.3-2
						C99.5,19.8,101.6,21.6,101.6,25.7z"/>
					<path class="st0" d="M118.2,26.7c0,4.6-3.3,6.9-6.3,6.9c-2.3,0-3.5-1.3-3.6-1.5h-0.1v6.1h-4.4v-18h4.4v1.2h0.1
						c0.1-0.2,1.3-1.5,3.6-1.5C114.9,19.8,118.2,22,118.2,26.7z M113.9,26.7c0-1.9-1.3-3-2.9-3c-1.6,0-2.9,1.1-2.9,3
						c0,1.9,1.3,3,2.9,3C112.5,29.6,113.9,28.5,113.9,26.7z"/>
					<path class="st0" d="M119.8,15.2h4.4v18h-4.4V15.2z"/>
					<path class="st0" d="M126.4,20.1h4.4v13.2h-4.4V20.1z"/>
					<path class="st0" d="M147.3,33.3h-4.4v-9.8h-4.5v9.8H134v-9.8h-1.8v-3.5h1.8v-0.2c0-5.5,4.8-5.3,7.2-5.3l0,3.7
						c-1.4,0-2.8-0.2-2.8,1.7h8.9V33.3z"/>
					<path class="st0" d="M173.3,19.9v4.2c-0.3-0.1-0.6-0.1-1-0.1c-2.6,0-4.1,1.7-4.1,4.1v5.1h-4.4V20.1h4.4v3.6
						c0.4-2.2,1.7-3.9,4-3.9C172.6,19.8,172.9,19.8,173.3,19.9z"/>
				</g>
			</g>
			<rect x="142.9" y="14.6" class="st0" width="4.4" height="3.7"/>
			<rect x="126.4" y="14.6" class="st0" width="4.4" height="3.7"/>
			<path class="st0" d="M162.1,28.4h-9c0.5,1.1,1.7,1.6,3.2,1.6c1.1,0,2-0.2,3-0.9l1.9,2.1c-1.1,1.3-2.9,2.4-5.4,2.4
				c-3.7,0-7-2.5-7-6.8c0-4.5,3.4-6.9,6.8-6.9C159,19.8,163.1,22.1,162.1,28.4z M153,25.3h5.3c-0.3-1.2-1.4-1.8-2.6-1.8
				S153.5,24,153,25.3z"/>
			<path class="st0" d="M162.1,28.4h-9c0.5,1.1,1.7,1.6,3.2,1.6c1.1,0,2-0.2,3-0.9l1.9,2.1c-1.1,1.3-2.9,2.4-5.4,2.4
				c-3.7,0-7-2.5-7-6.8c0-4.5,3.4-6.9,6.8-6.9C159,19.8,163.1,22.1,162.1,28.4z M153,25.3h5.3c-0.3-1.2-1.4-1.8-2.6-1.8
				S153.5,24,153,25.3z"/>
		</g>
	</g>
</g>
<g>
	<rect x="38.2" y="19.9" class="st1" width="5.6" height="14.1"/>
	<rect x="12.8" y="19.9" class="st1" width="5.9" height="14.1"/>
	<polygon class="st2" points="26.4,27 21.4,22 21.4,32 	"/>
	<rect x="21.4" y="36.7" class="st1" width="14.1" height="5.9"/>
	<path class="st2" d="M45.1,8.3C41,4.6,35.6,2.3,29.8,1.9v7.2h7.1c0.7,0,1.3,0.6,1.3,1.3v4.9L45.1,8.3z"/>
	<polygon class="st2" points="30.1,27 35.5,32.4 35.5,21.6 	"/>
	<rect x="21.4" y="11.7" class="st1" width="14.1" height="5.6"/>
	<polygon class="st2" points="33.5,34.1 28.3,28.9 23.1,34.1 	"/>
	<polygon class="st2" points="28.3,25.1 33.5,19.9 23.1,19.9 	"/>
	<path class="st2" d="M3.2,25.7h7v-7.1c0-0.7,0.6-1.3,1.3-1.3h5.2l-7.1-7.1C5.9,14.4,3.5,19.7,3.2,25.7z"/>
	<path class="st1" d="M39.8,17.3H45c0.7,0,1.3,0.6,1.3,1.3v7.1h7c-0.3-5.9-2.7-11.3-6.4-15.5L39.8,17.3z"/>
	<path class="st2" d="M11.5,45.7c4.2,3.8,9.6,6.1,15.7,6.4v-6.8h-7.1c-0.7,0-1.3-0.6-1.3-1.3v-5.5L11.5,45.7z"/>
	<path class="st1" d="M18.8,15.6v-5.2c0-0.7,0.6-1.3,1.3-1.3h7.1V1.9c-6,0.3-11.5,2.6-15.7,6.4L18.8,15.6z"/>
	<path class="st2" d="M46.4,28.3v7.1c0,0.7-0.6,1.3-1.3,1.3h-5.2l7.1,7.1c3.7-4.1,6.1-9.5,6.4-15.5H46.4z"/>
	<path class="st1" d="M16.7,36.7h-5.2c-0.7,0-1.3-0.6-1.3-1.3v-7.1h-7c0.3,5.9,2.7,11.3,6.4,15.5L16.7,36.7z"/>
	<path class="st1" d="M38.2,38.7v5.2c0,0.7-0.6,1.3-1.3,1.3h-7.1v6.8c5.9-0.3,11.2-2.7,15.3-6.4L38.2,38.7z"/>
</g>
</svg>
