<?xml version="1.0" encoding="utf-8"?>
<!-- Generator: Adobe Illustrator 25.0.0, SVG Export Plug-In . SVG Version: 6.00 Build 0)  -->
<svg version="1.1" id="Layer_1" xmlns="http://www.w3.org/2000/svg" xmlns:xlink="http://www.w3.org/1999/xlink" x="0px" y="0px"
	 viewBox="0 0 55 55" style="enable-background:new 0 0 282.2 55;" xml:space="preserve">
<style type="text/css">
	.st1{fill:#BA5930;}
	.st2{fill:#FAB395;}
</style>
<g>
	<rect x="38.2" y="19.9" class="st1" width="5.6" height="14.1"/>
	<rect x="12.8" y="19.9" class="st1" width="5.9" height="14.1"/>
	<polygon class="st2" points="26.4,27 21.4,22 21.4,32 	"/>
	<rect x="21.4" y="36.7" class="st1" width="14.1" height="5.9"/>
	<path class="st2" d="M45.1,8.3C41,4.6,35.6,2.3,29.8,1.9v7.2h7.1c0.7,0,1.3,0.6,1.3,1.3v4.9L45.1,8.3z"/>
	<polygon class="st2" points="30.1,27 35.5,32.4 35.5,21.6 	"/>
	<rect x="21.4" y="11.7" class="st1" width="14.1" height="5.6"/>
	<polygon class="st2" points="33.5,34.1 28.3,28.9 23.1,34.1 	"/>
	<polygon class="st2" points="28.3,25.1 33.5,19.9 23.1,19.9 	"/>
	<path class="st2" d="M3.2,25.7h7v-7.1c0-0.7,0.6-1.3,1.3-1.3h5.2l-7.1-7.1C5.9,14.4,3.5,19.7,3.2,25.7z"/>
	<path class="st1" d="M39.8,17.3H45c0.7,0,1.3,0.6,1.3,1.3v7.1h7c-0.3-5.9-2.7-11.3-6.4-15.5L39.8,17.3z"/>
	<path class="st2" d="M11.5,45.7c4.2,3.8,9.6,6.1,15.7,6.4v-6.8h-7.1c-0.7,0-1.3-0.6-1.3-1.3v-5.5L11.5,45.7z"/>
	<path class="st1" d="M18.8,15.6v-5.2c0-0.7,0.6-1.3,1.3-1.3h7.1V1.9c-6,0.3-11.5,2.6-15.7,6.4L18.8,15.6z"/>
	<path class="st2" d="M46.4,28.3v7.1c0,0.7-0.6,1.3-1.3,1.3h-5.2l7.1,7.1c3.7-4.1,6.1-9.5,6.4-15.5H46.4z"/>
	<path class="st1" d="M16.7,36.7h-5.2c-0.7,0-1.3-0.6-1.3-1.3v-7.1h-7c0.3,5.9,2.7,11.3,6.4,15.5L16.7,36.7z"/>
	<path class="st1" d="M38.2,38.7v5.2c0,0.7-0.6,1.3-1.3,1.3h-7.1v6.8c5.9-0.3,11.2-2.7,15.3-6.4L38.2,38.7z"/>
</g>
</svg>
