<svg id="Layer_1" data-name="Layer 1" xmlns="http://www.w3.org/2000/svg" viewBox="0 0 55.03 55.03">
    <defs>
        <style>.cls-2{fill:#ba5930;}.cls-3{fill:#fab395;}</style>
    </defs>
    <rect class="cls-2" x="38.54" y="20.34" width="5.58" height="14.13"/>
    <rect class="cls-2" x="13.23" y="20.34" width="5.92" height="14.13"/>
    <polygon class="cls-3" points="26.81 27.41 21.78 22.37 21.78 32.44 26.81 27.41"/>
    <rect class="cls-2" x="21.78" y="37.1" width="14.13" height="5.92"/>
    <path class="cls-3" d="M45.47,8.75a25,25,0,0,0-15.31-6.4V9.5h7.06a1.32,1.32,0,0,1,1.32,1.32v4.86Z"/>
    <polygon class="cls-3" points="30.53 27.41 35.91 32.78 35.91 22.03 30.53 27.41"/>
    <rect class="cls-2" x="21.78" y="12.13" width="14.13" height="5.58"/>
    <polygon class="cls-3" points="33.88 34.47 28.67 29.27 23.47 34.47 33.88 34.47"/>
    <polygon class="cls-3" points="28.67 25.55 33.88 20.34 23.47 20.34 28.67 25.55"/>
    <path class="cls-3" d="M3.61,26.09h7V19a1.31,1.31,0,0,1,1.31-1.32h5.21L10,10.61A25,25,0,0,0,3.61,26.09Z"/>
    <path class="cls-2" d="M40.23,17.71h5.2A1.32,1.32,0,0,1,46.75,19v7.06h7a25.05,25.05,0,0,0-6.41-15.48Z"/>
    <path class="cls-3" d="M11.88,46.06a24.93,24.93,0,0,0,15.65,6.42V45.66H20.46a1.32,1.32,0,0,1-1.31-1.32V38.79Z"/>
    <path class="cls-2" d="M19.15,16v-5.2A1.32,1.32,0,0,1,20.46,9.5h7.07V2.33A25,25,0,0,0,11.88,8.75Z"/>
    <path class="cls-3" d="M46.75,28.72v7.07a1.32,1.32,0,0,1-1.32,1.31h-5.2l7.1,7.1a25,25,0,0,0,6.41-15.48Z"/>
    <path class="cls-2" d="M17.12,37.1H11.91a1.31,1.31,0,0,1-1.31-1.31V28.72h-7A25,25,0,0,0,10,44.2Z"/>
    <path class="cls-2" d="M38.54,39.13v5.21a1.32,1.32,0,0,1-1.32,1.32H30.16v6.8a25,25,0,0,0,15.31-6.4Z"/>
</svg>