<svg width="77" height="65" viewBox="0 0 77 65" fill="none" xmlns="http://www.w3.org/2000/svg">
<path d="M40.5867 0.999985L41.5303 1.33115L41.9975 -1.52588e-05H40.5867V0.999985ZM23.7867 0.999985V-1.52588e-05H23.0811L22.8446 0.664803L23.7867 0.999985ZM1.58672 63.4L0.644569 63.0648L0.169548 64.4H1.58672V63.4ZM18.6867 63.4V64.4H19.3956L19.6303 63.7312L18.6867 63.4ZM75.3867 0.999985L76.3303 1.33115L76.7975 -1.52588e-05H75.3867V0.999985ZM58.5867 0.999985V-1.52588e-05H57.8811L57.6446 0.664803L58.5867 0.999985ZM36.3867 63.4L35.4446 63.0648L34.9696 64.4H36.3867V63.4ZM53.4867 63.4V64.4H54.1956L54.4303 63.7312L53.4867 63.4ZM40.5867 -1.52588e-05H23.7867V1.99998H40.5867V-1.52588e-05ZM22.8446 0.664803L0.644569 63.0648L2.52887 63.7352L24.7289 1.33517L22.8446 0.664803ZM1.58672 64.4H18.6867V62.4H1.58672V64.4ZM19.6303 63.7312L41.5303 1.33115L39.6431 0.668831L17.7431 63.0688L19.6303 63.7312ZM75.3867 -1.52588e-05H58.5867V1.99998H75.3867V-1.52588e-05ZM57.6446 0.664803L35.4446 63.0648L37.3289 63.7352L59.5289 1.33517L57.6446 0.664803ZM36.3867 64.4H53.4867V62.4H36.3867V64.4ZM54.4303 63.7312L76.3303 1.33115L74.4431 0.668831L52.5432 63.0688L54.4303 63.7312Z" fill="#BA5930"/>
</svg>